<?xml version="1.0" encoding="UTF-8" standalone="no"?><!DOCTYPE svg PUBLIC "-//W3C//DTD SVG 1.1//EN" "http://www.w3.org/Graphics/SVG/1.1/DTD/svg11.dtd"><svg width="100%" height="100%" viewBox="0 0 34792 34817" version="1.1" xmlns="http://www.w3.org/2000/svg" xmlns:xlink="http://www.w3.org/1999/xlink" xml:space="preserve" xmlns:serif="http://www.serif.com/" style="fill-rule:evenodd;clip-rule:evenodd;stroke-linejoin:round;stroke-miterlimit:2;"><g><g><ellipse cx="18393.6" cy="17929.9" rx="13640" ry="13628.6" style="fill:#b7b4ee;"/></g><path d="M34425.9,17408.3c-0,9405.56 -7624.54,17030.1 -17030.1,17030.1c-9405.47,-0 -17030.1,-7624.54 -17030.1,-17030.1c-0,-9405.47 7624.64,-17030.1 17030.1,-17030.1c9405.56,-0 17030.1,7624.64 17030.1,17030.1Zm-21856,6777.12l-3305.07,0c-694.492,0 -1037.54,0 -1246.71,-133.792c-225.927,-146.49 -363.982,-389.13 -380.717,-656.94c-12.563,-246.721 158.985,-548.048 502.036,-1150.5l8160.62,-14384.2c347.246,-610.816 522.944,-916.224 744.676,-1029.18c238.467,-121.32 522.967,-121.32 761.434,-0c221.731,112.952 397.452,418.36 744.676,1029.18l1677.66,2928.54l8.549,14.944c375.048,655.285 565.236,987.588 648.278,1336.35c92.021,380.717 92.021,782.342 -0,1163.06c-83.677,351.419 -271.938,686.125 -652.655,1351.32l-4286.57,7577.44l-11.089,19.411c-377.519,660.682 -568.842,995.547 -833.999,1248.16c-288.673,276.201 -635.919,476.888 -1016.64,590.044c-347.246,96.149 -736.308,96.149 -1514.48,96.149Zm8346.39,0l4735.78,0c698.665,0 1050.15,0 1259.46,-137.874c225.858,-146.49 368.041,-393.438 380.739,-661.022c12.019,-238.784 -155.788,-528.364 -484.598,-1095.8c-11.338,-19.32 -22.677,-38.981 -34.242,-58.981l-2372.2,-4058.11l-26.985,-45.694c-333.346,-563.694 -501.606,-848.353 -717.714,-958.38c-238.33,-121.342 -518.84,-121.342 -757.193,0c-217.559,112.952 -393.257,409.993 -740.504,1008.25l-2363.76,4058.13l-8.096,13.968c-346.022,597.301 -518.953,895.793 -506.481,1140.7c16.735,267.81 154.79,514.532 380.694,661.022c205.019,133.792 556.438,133.792 1255.1,133.792Z" style="stroke:#b7b4ee;stroke-width:416.67px;"/></g></svg>