<?xml version="1.0" encoding="UTF-8" standalone="no"?><!DOCTYPE svg PUBLIC "-//W3C//DTD SVG 1.1//EN" "http://www.w3.org/Graphics/SVG/1.1/DTD/svg11.dtd"><svg width="100%" height="100%" viewBox="0 0 3105 3105" version="1.1" xmlns="http://www.w3.org/2000/svg" xmlns:xlink="http://www.w3.org/1999/xlink" xml:space="preserve" xmlns:serif="http://www.serif.com/" style="fill-rule:evenodd;clip-rule:evenodd;stroke-linejoin:round;stroke-miterlimit:2;"><g><ellipse cx="1531.74" cy="1490.93" rx="1279.19" ry="1359.03" style="fill:#b7b4ee;"/><g><path d="M1552.08,40.121c834.478,-0 1511.96,677.485 1511.96,1511.96c-0,834.478 -677.485,1511.96 -1511.96,1511.96c-834.477,-0 -1511.96,-677.485 -1511.96,-1511.96c-0,-834.477 677.485,-1511.96 1511.96,-1511.96Zm-2.016,2645.93c627.465,0 1135.99,-507.641 1135.99,-1133.97c0,-626.33 -508.523,-1133.97 -1135.99,-1133.97c-595.209,-0 -1083.45,456.99 -1131.95,1038.59l1501.5,-0l0,190.759l-1501.5,-0c48.508,581.601 536.746,1038.59 1131.95,1038.59Z" style="stroke:#b7b4ee;stroke-width:39.58px;"/></g></g></svg>