<?xml version="1.0" encoding="UTF-8" standalone="no"?><!DOCTYPE svg PUBLIC "-//W3C//DTD SVG 1.1//EN" "http://www.w3.org/Graphics/SVG/1.1/DTD/svg11.dtd"><svg width="100%" height="100%" viewBox="0 0 64309 64309" version="1.1" xmlns="http://www.w3.org/2000/svg" xmlns:xlink="http://www.w3.org/1999/xlink" xml:space="preserve" xmlns:serif="http://www.serif.com/" style="fill-rule:evenodd;clip-rule:evenodd;stroke-linejoin:round;stroke-miterlimit:2;"><g><g><g><ellipse cx="29740.5" cy="32931.8" rx="23007.1" ry="15952.1" style="fill:#b7b4ee;"/></g><path d="M32154.2,435.159c17506.2,0 31719,14212.8 31719,31719c-0,17506.2 -14212.8,31719 -31719,31719c-17506.2,-0 -31719,-14212.8 -31719,-31719c0,-17506.2 14212.8,-31719 31719,-31719Zm-9249.26,40143.6c2283.77,-0 4110.78,-520.192 5468.36,-1585.95c1370.26,-1078.45 2321.83,-2715.15 2880.09,-4884.73c342.565,-1332.2 621.692,-2715.15 862.757,-4123.47c76.125,-507.505 114.188,-926.195 114.188,-1256.07c0,-1103.82 -279.127,-2055.39 -837.382,-2854.71c-558.254,-812.006 -1319.51,-1421.01 -2283.77,-1814.33c-964.258,-418.691 -2068.08,-621.693 -3286.09,-621.693c-4491.41,0 -7282.68,2182.27 -8361.13,6546.8c-380.629,1611.33 -672.443,2981.59 -875.445,4123.47c-76.126,507.504 -114.188,926.195 -114.188,1281.45c-0,1662.08 596.317,2956.21 1788.95,3857.03c1205.32,888.132 2753.21,1332.2 4643.66,1332.2Zm342.565,-3425.65c-1522.51,0 -2296.46,-723.193 -2283.77,-2194.95c-0,-355.253 38.063,-685.131 101.501,-1002.32c291.815,-1547.89 570.942,-2842.02 862.757,-3907.78c266.439,-1091.13 710.506,-1890.45 1332.2,-2410.64c634.38,-520.192 1395.64,-786.631 2283.77,-786.631c1509.82,-0 2258.39,723.193 2258.39,2169.58c-0,355.253 -38.063,697.818 -101.501,1027.7c-190.314,1116.51 -469.441,2410.64 -837.382,3907.78c-266.439,1091.13 -723.193,1890.45 -1357.57,2410.64c-621.693,520.192 -1370.26,786.631 -2258.39,786.631Zm10086.6,3197.28l3235.34,0c164.939,0 317.191,-50.75 456.754,-164.939c152.251,-114.188 228.377,-253.752 266.44,-431.378l1091.13,-5214.61l3209.96,0c2080.77,0 3717.47,-431.378 4910.1,-1306.82c1218.01,-875.445 2017.33,-2220.33 2410.64,-4047.35c88.813,-431.379 139.564,-850.07 139.564,-1243.38c-0,-1382.95 -545.567,-2436.02 -1624.01,-3171.9c-1065.76,-723.194 -2474.08,-1091.13 -4237.66,-1091.13l-6331.11,-0c-164.939,-0 -317.19,50.75 -456.753,164.939c-152.252,114.188 -241.065,253.752 -266.44,431.378l-3286.09,15478.9c-25.375,164.939 -0,304.502 76.125,431.378c101.501,114.189 228.377,164.939 406.004,164.939Zm8424.57,-9097.01l-2727.84,-0l900.82,-4263.03l2854.71,0c647.068,0 1116.51,126.876 1382.95,380.628c266.439,241.065 406.003,596.318 406.003,1053.07c-0,203.002 -25.375,444.067 -76.126,710.506c-164.939,685.131 -494.816,1205.32 -1002.32,1573.26c-494.817,367.94 -1065.76,545.567 -1738.2,545.567Z" style="stroke:#b7b4ee;stroke-width:833.33px;"/></g></g></svg>